<?xml version="1.0" encoding="UTF-8" standalone="no"?><!-- Generator: Gravit.io --><svg xmlns="http://www.w3.org/2000/svg" xmlns:xlink="http://www.w3.org/1999/xlink" style="isolation:isolate" viewBox="835 409 481 481" width="481pt" height="481pt"><defs><clipPath id="_clipPath_F9BYBxqDrYUx2Jp5tMEr1OpUUSLQ0HZi"><rect x="835" y="409" width="481" height="481"/></clipPath></defs><g clip-path="url(#_clipPath_F9BYBxqDrYUx2Jp5tMEr1OpUUSLQ0HZi)"><circle vector-effect="non-scaling-stroke" cx="1075.5000000000005" cy="649.4999999999999" r="240.50000000000023" fill="rgb(0,153,0)"/><path d="M 974 556 L 1132 556 C 1148.557 556 1162 569.443 1162 586 L 1162 714 C 1162 730.557 1148.557 744 1132 744 L 974 744 C 957.443 744 944 730.557 944 714 L 944 586 C 944 569.443 957.443 556 974 556 Z" style="stroke:none;fill:#FFFFFF;stroke-miterlimit:10;"/><path d=" M 1201.859 711.025 L 1162 688.012 L 1122.141 665 C 1107.802 656.721 1107.802 643.279 1122.141 635 L 1162 611.988 L 1201.859 588.975 C 1216.198 580.696 1227.84 587.418 1227.84 603.975 L 1227.84 650 L 1227.84 696.025 C 1227.84 712.582 1216.198 719.304 1201.859 711.025 Z " fill="rgb(255,255,255)"/><path d=" M 1052.999 584.931 L 1034.641 631.493 L 983.511 634.187 L 1023.258 665.766 L 1010.106 714.069 L 1052.999 686.911 L 1095.891 714.069 L 1082.739 665.766 L 1122.489 634.187 L 1071.359 631.493 L 1052.999 584.931 Z " fill="rgb(0,153,0)"/></g></svg>