<?xml version="1.0" encoding="UTF-8" standalone="no"?><!-- Generator: Gravit.io --><svg xmlns="http://www.w3.org/2000/svg" xmlns:xlink="http://www.w3.org/1999/xlink" style="isolation:isolate" viewBox="0 0 837.865 658.418" width="837.865pt" height="658.418pt"><defs><clipPath id="_clipPath_HK6Lu7vzEthxUpKd3GrKovOqSmNW7cre"><rect width="837.865" height="658.418"/></clipPath></defs><g clip-path="url(#_clipPath_HK6Lu7vzEthxUpKd3GrKovOqSmNW7cre)"><path d=" M 253.615 253.877 C 249.131 248.067 242.794 242.692 242.393 235.523 C 242.025 228.947 246.928 222.419 244.86 216.128 C 243.27 211.291 238.025 208.373 232.9 206.828 C 223.087 203.911 212.586 204.315 203.027 207.978 L 203.546 207.612 C 197.711 205.533 190.891 207.679 186.301 211.653 C 181.71 215.627 178.982 221.135 176.865 226.655 C 174.748 232.175 173.108 237.896 170.167 243.071 C 167.225 248.246 162.721 252.952 156.779 254.741 C 158.768 258.709 164.987 260.07 168.634 257.336 C 169.566 256.579 170.403 255.713 171.128 254.757 Q 174.777 250.32 178.426 245.883 C 180.929 250.335 177.19 256.479 180.266 260.6 C 181.853 262.725 184.75 263.532 187.441 264.111 C 208.473 268.599 230.291 267.79 250.933 261.756 C 252.592 261.267 254.422 260.594 255.11 259.092 C 255.905 257.359 254.793 255.404 253.615 253.877 Z " fill="rgb(47,46,65)"/><path d=" M 313.25 276.549 C 313.118 277.127 313.033 277.713 312.994 278.304 L 267.024 304.824 L 255.85 298.392 L 243.939 313.986 L 262.613 327.296 C 265.712 329.504 269.896 329.402 272.884 327.045 L 320.287 289.649 C 324.667 291.27 329.593 290.012 332.659 286.489 C 335.726 282.966 336.292 277.913 334.082 273.799 C 331.872 269.684 327.346 267.366 322.716 267.978 C 318.085 268.589 314.316 272.002 313.25 276.549 L 313.25 276.549 Z " fill="rgb(255,183,183)"/><path d=" M 265.487 306.08 L 250.63 325.336 C 249.774 326.445 248.479 327.126 247.081 327.202 C 245.683 327.279 244.32 326.743 243.349 325.735 L 226.529 308.269 C 220.717 303.733 219.672 295.349 224.193 289.525 C 228.714 283.701 237.095 282.635 242.931 287.14 L 264.026 298.936 C 265.248 299.62 266.112 300.802 266.392 302.174 C 266.673 303.545 266.343 304.972 265.487 306.08 L 265.487 306.08 Z " fill="rgb(62,117,232)"/><path d=" M 245.04 641.589 L 258.159 641.588 L 264.4 590.984 L 245.037 590.985 L 245.04 641.589 L 245.04 641.589 Z " fill="rgb(255,183,183)"/><path d=" M 241.693 637.306 L 267.53 637.305 L 267.531 637.305 C 276.624 637.305 283.996 644.676 283.997 653.77 L 283.997 654.305 L 241.694 654.306 L 241.693 637.306 Z " fill="rgb(47,46,65)"/><path d=" M 155.149 641.589 L 168.269 641.588 L 174.51 590.984 L 155.147 590.985 L 155.149 641.589 L 155.149 641.589 Z " fill="rgb(255,183,183)"/><path d=" M 151.803 637.306 L 177.64 637.305 L 177.641 637.305 C 186.734 637.305 194.106 644.676 194.106 653.77 L 194.106 654.305 L 151.804 654.306 L 151.803 637.306 Z " fill="rgb(47,46,65)"/><path d=" M 212.149 266.787 C 199.709 265.422 190.719 254.214 192.084 241.775 C 193.45 229.336 204.658 220.345 217.097 221.711 C 229.536 223.076 238.526 234.284 237.161 246.723 C 235.795 259.162 224.588 268.153 212.149 266.787 Z " fill="rgb(255,183,183)"/><path d=" M 227.889 278.239 L 241.247 284.857 C 241.247 284.857 256.171 310.793 247.61 335.406 C 243.454 347.356 255.158 385.448 255.158 385.448 C 255.158 385.448 273.293 557.991 273.351 611.244 C 250.821 614.708 229.418 618.988 228.348 608.287 C 227.278 597.586 215.564 471.058 215.564 471.058 C 215.564 471.058 199.455 611.498 186.613 613.638 C 173.772 615.778 148.089 612.568 148.089 612.568 C 148.089 612.568 168.479 406.851 182.39 394.009 L 184.53 383.308 L 184.473 287.25 L 200.501 279.602 L 227.889 278.239 Z " fill="rgb(47,46,65)"/><path d=" M 180.105 424.065 C 183.097 422.446 185.219 419.585 185.899 416.251 C 186.578 412.918 185.747 409.454 183.627 406.793 L 199.162 303.246 L 178.866 302.271 L 166.756 405.39 C 162.426 409.333 161.73 415.892 165.136 420.657 C 168.542 425.421 174.973 426.886 180.105 424.065 Z " fill="rgb(255,183,183)"/><path d=" M 198.721 329.191 L 174.448 327.658 C 173.05 327.57 171.76 326.878 170.914 325.762 C 170.068 324.646 169.75 323.218 170.042 321.848 L 175.099 298.134 C 175.604 290.779 181.967 285.22 189.323 285.706 C 196.68 286.192 202.255 292.54 201.789 299.897 L 203.823 323.981 C 203.94 325.376 203.444 326.754 202.465 327.754 C 201.485 328.755 200.118 329.279 198.721 329.191 L 198.721 329.191 Z " fill="rgb(62,117,232)"/><path d=" M 238.386 229.51 C 237.503 225.502 234.633 222.181 231.327 219.749 C 220.081 211.476 204.529 212.422 194.368 221.997 C 191.617 224.427 189.633 227.606 188.66 231.146 C 187.718 234.737 188.613 238.563 191.052 241.363 L 191.505 241.647 C 191.094 239.905 192.447 238.164 194.064 237.395 C 195.745 236.778 197.501 236.385 199.285 236.225 C 204.746 235.193 209.491 231.844 212.294 227.045 C 214.37 232.951 218.899 237.671 224.715 239.99 C 227.712 241.162 235.942 242.773 238.795 241.285 C 242.435 239.388 239.27 233.518 238.386 229.51 Z " fill="rgb(47,46,65)"/><path d=" M 71.554 610.33 C 79.533 613.135 88.397 611.573 94.937 606.211 C 103.127 599.337 105.695 588.015 107.784 577.529 L 113.963 546.513 L 101.026 555.421 C 91.721 561.827 82.207 568.44 75.765 577.719 C 69.324 586.998 66.513 599.666 71.688 609.707" fill="rgb(39,141,73)"/><path d=" M 73.552 650.04 C 71.923 638.177 70.248 626.16 71.393 614.169 C 72.408 603.519 75.657 593.12 82.271 584.589 C 85.782 580.071 90.055 576.199 94.896 573.149 C 96.158 572.353 97.32 574.353 96.063 575.146 C 87.686 580.44 81.207 588.258 77.559 597.472 C 73.53 607.718 72.883 618.887 73.577 629.772 C 73.997 636.354 74.888 642.893 75.783 649.424 C 75.93 650.037 75.577 650.659 74.975 650.847 C 74.36 651.013 73.725 650.652 73.553 650.039 L 73.552 650.04 Z " fill="rgb(242,242,242)"/><path d=" M 85.273 631.004 C 88.694 636.206 94.582 639.246 100.804 639.023 C 108.669 638.649 115.222 633.163 121.121 627.952 L 138.573 612.544 L 127.024 611.991 C 118.717 611.593 110.197 611.22 102.285 613.784 C 94.374 616.349 87.078 622.511 85.631 630.7" fill="rgb(39,141,73)"/><path d=" M 68.949 656.86 C 76.789 642.989 85.881 627.572 102.13 622.645 C 106.647 621.279 111.384 620.79 116.085 621.204 C 117.567 621.332 117.197 623.615 115.718 623.488 C 107.838 622.834 99.972 624.915 93.446 629.38 C 87.166 633.655 82.277 639.598 78.139 645.899 C 75.604 649.76 73.333 653.784 71.062 657.802 C 70.337 659.087 68.215 658.159 68.949 656.86 Z " fill="rgb(242,242,242)"/><path d=" M 598.711 400.413 C 584 380.726 557.074 375.974 543.695 385.972 C 530.315 395.97 527.242 423.138 541.953 442.825 C 555.57 461.048 580.241 466.018 593.829 459.191 C 593.786 459.404 593.783 459.623 593.821 459.838 L 594.588 463.625 C 594.706 464.212 595.12 464.696 595.682 464.903 C 596.244 465.111 596.873 465.013 597.345 464.644 L 603.833 459.576 C 604.305 459.207 604.552 458.62 604.487 458.025 C 604.421 457.43 604.052 456.911 603.511 456.653 L 600.022 454.994 C 599.899 454.939 599.77 454.898 599.638 454.873 C 610.112 443.8 612.357 418.675 598.711 400.413 Z " fill="rgb(39,141,73)"/><path d=" M 566.532 392.98 C 581.476 395.354 591.943 409.017 590.344 424.064 C 590.186 425.724 592.779 425.713 592.936 424.064 C 594.475 407.865 583.261 393.219 567.221 390.48 C 565.589 390.203 564.888 392.7 566.532 392.98 Z " fill="rgb(255,255,255)"/><path d=" M 622.69 60.105 C 635.551 39.163 630.022 12.387 615.79 3.646 C 601.557 -5.095 575.175 2.083 562.313 23.025 C 550.408 42.41 554.902 67.172 566.265 77.278 C 566.051 77.316 565.846 77.394 565.661 77.509 L 562.424 79.62 C 561.922 79.947 561.626 80.511 561.64 81.11 C 561.655 81.709 561.979 82.257 562.496 82.56 L 569.601 86.716 C 570.118 87.019 570.755 87.032 571.284 86.751 C 571.813 86.471 572.159 85.936 572.199 85.338 L 572.452 81.482 C 572.458 81.348 572.448 81.213 572.422 81.081 C 586.581 86.725 610.759 79.532 622.69 60.105 Z " fill="rgb(39,141,73)"/><path d=" M 617.712 27.456 C 621.026 42.221 612.194 56.994 597.62 61.065 C 596.019 61.531 596.987 63.937 598.578 63.474 C 614.2 58.921 623.668 43.091 620.289 27.173 C 619.945 25.554 617.365 25.825 617.712 27.456 Z " fill="rgb(255,255,255)"/><path d=" M 394.757 159.471 C 393.681 134.918 374.103 115.834 357.416 116.565 C 340.73 117.295 322.895 138.019 323.971 162.572 C 324.966 185.299 342.558 203.295 357.633 205.302 C 357.476 205.454 357.35 205.634 357.262 205.832 L 355.763 209.394 C 355.531 209.946 355.601 210.579 355.948 211.067 C 356.295 211.555 356.871 211.828 357.468 211.789 L 365.683 211.252 C 366.281 211.213 366.816 210.868 367.097 210.339 C 367.378 209.81 367.365 209.173 367.063 208.656 L 365.113 205.319 C 365.043 205.205 364.959 205.099 364.864 205.004 C 379.754 201.748 395.754 182.247 394.757 159.471 Z " fill="rgb(39,141,73)"/><path d=" M 372.346 135.212 C 383.361 145.588 384.32 162.773 374.527 174.309 C 373.462 175.591 375.611 177.042 376.669 175.768 C 387.061 163.246 386.037 144.829 374.322 133.535 C 373.13 132.387 371.144 134.056 372.346 135.212 Z " fill="rgb(255,255,255)"/><path d=" M 471.267 322.353 C 458.22 321.531 446.357 314.505 439.367 303.458 C 438.401 301.914 437.141 300.217 437.809 298.317 C 438.289 296.816 439.741 295.846 441.311 295.978 C 443.282 296.218 444.554 298.146 444.797 299.994 C 445.073 302.089 443.594 303.735 441.769 304.514 C 437.308 306.416 432.807 303.476 429.173 301.129 C 420.893 295.781 411.786 290.945 401.754 290.335 C 392.471 289.771 382.517 293.411 377.354 301.461 C 376.45 302.869 378.693 304.17 379.592 302.769 C 384.712 294.786 395.064 291.918 404.065 293.152 C 409.428 293.999 414.608 295.757 419.378 298.351 C 421.852 299.635 424.251 301.058 426.602 302.554 C 428.839 304.115 431.21 305.475 433.687 306.616 C 437.819 308.314 443.289 308.181 446.174 304.273 C 448.867 300.628 446.786 294.559 442.283 293.534 C 440.276 293.138 438.205 293.777 436.77 295.235 C 435.335 296.692 434.728 298.773 435.155 300.773 C 435.604 302.92 437.221 305.021 438.472 306.775 C 446.087 317.487 458.147 324.17 471.267 324.946 C 472.935 325.028 472.93 322.436 471.267 322.353 L 471.267 322.353 Z " fill="rgb(204,204,204)"/><path d=" M 720.217 143.756 C 727.314 140.454 736.028 139.372 743.249 142.44 C 750.47 145.508 755.393 153.371 753.058 160.331 C 752 163.486 749.589 166.589 750.528 169.776 C 751.251 172.228 753.773 173.848 756.251 174.999 C 758.728 176.151 761.437 177.119 763.229 179.061 C 765.02 181.003 765.394 184.346 763.156 185.852 C 762.419 186.348 761.497 186.584 760.782 187.107 C 759.533 188.121 759.066 189.817 759.618 191.329 C 760.214 192.813 761.199 194.108 762.469 195.079 C 765.009 197.27 768.367 199.778 767.578 202.888 C 766.984 204.575 765.604 205.866 763.881 206.346 C 762.118 206.854 760.289 207.096 758.454 207.062 L 683.488 209.424 C 681.013 209.61 678.525 209.471 676.086 209.01 C 673.69 208.573 671.584 207.158 670.273 205.105 C 668.838 202.448 669.78 199.175 671.553 196.694 C 673.326 194.212 675.835 192.255 677.908 189.976 C 679.982 187.698 681.678 184.854 681.312 181.909 C 681.02 179.552 679.465 177.514 678.349 175.372 C 677.233 173.231 676.585 170.554 678.03 168.583 C 680.067 165.807 684.957 166.058 687.273 163.471 C 689.021 161.518 688.683 158.707 688.857 156.189 C 689.275 150.133 693.468 144.413 699.437 141.757 C 705.595 139.113 712.648 139.594 718.391 143.048 L 720.217 143.756 Z " fill="rgb(47,46,65)"/><path d=" M 811.513 443.477 L 811.513 455.737 L 764.225 461.57 L 764.226 443.475 L 811.513 443.477 L 811.513 443.477 Z " fill="rgb(158,97,106)"/><path d=" M 823.397 440.351 L 823.396 479.882 L 822.896 479.882 C 814.398 479.881 807.51 472.993 807.51 464.495 L 807.51 464.494 L 807.511 440.35 L 823.397 440.351 Z " fill="rgb(47,46,65)"/><path d=" M 753.056 464.332 L 750.046 476.216 L 702.773 470.262 L 707.216 452.722 L 753.056 464.332 L 753.056 464.332 Z " fill="rgb(158,97,106)"/><path d=" M 765.344 464.218 L 755.639 502.539 L 755.154 502.416 C 746.917 500.33 741.93 491.961 744.015 483.724 L 744.016 483.723 L 749.943 460.318 L 765.344 464.218 Z " fill="rgb(47,46,65)"/><path d=" M 740.983 326.846 L 743.536 329.506 C 743.536 329.506 760.198 342.571 747.87 376.986 L 727.706 435.076 L 795.294 437.712 L 793.846 464.256 C 793.846 464.256 695.828 469.708 696.686 453.555 C 696.686 453.555 701.16 377.59 701.16 377.59 L 680.796 361.236 L 685.706 333.576 L 740.983 326.846 Z " fill="rgb(47,46,65)"/><path d=" M 688.626 353.208 L 680.796 361.236 L 654.543 433.401 C 654.543 433.401 650.543 451.401 659.543 455.401 C 659.543 455.401 726.453 481.777 726.453 481.777 L 732.366 460.494 L 687.746 433.712 L 708.543 406.401 L 711.673 363.356 L 688.626 353.208 Z " fill="rgb(47,46,65)"/><path d=" M 689.043 225.901 L 755.679 212.577 L 757.127 249.136 L 739.866 285.926 L 743.536 329.506 L 683.816 339.94 L 685.686 282.636 C 685.686 282.636 669.648 260.011 679.096 237.206 L 689.043 225.901 Z " fill="rgb(39,141,73)"/><path d=" M 837.63 139.175 C 838.306 142.282 837.571 145.528 835.623 148.041 C 833.675 150.554 830.715 152.075 827.538 152.195 L 763.638 226.292 L 748.781 208.262 L 816.264 141.096 C 816.42 135.626 820.643 131.136 826.094 130.646 C 831.545 130.156 836.5 133.82 837.63 139.175 L 837.63 139.175 Z " fill="rgb(158,97,106)"/><path d=" M 777.551 218.207 C 777.581 219.607 777 220.951 775.959 221.888 L 757.991 238.063 C 753.295 243.747 744.885 244.559 739.188 239.88 C 733.49 235.201 732.653 226.793 737.316 221.082 L 749.858 200.323 C 750.582 199.124 751.793 198.3 753.174 198.065 C 754.554 197.83 755.969 198.208 757.049 199.1 L 775.803 214.596 C 776.883 215.488 777.522 216.806 777.551 218.207 Z " fill="rgb(39,141,73)"/><path d=" M 584.558 313.309 C 584.356 310.136 585.57 307.037 587.872 304.845 C 590.175 302.653 593.331 301.593 596.49 301.952 L 670.784 238.281 L 682.767 258.336 L 605.97 314.616 C 604.995 320.001 600.146 323.806 594.684 323.473 C 589.221 323.139 584.871 318.773 584.558 313.309 L 584.558 313.309 Z " fill="rgb(158,97,106)"/><path d=" M 655.816 244.187 C 655.996 242.798 656.772 241.557 657.942 240.786 L 678.133 227.491 C 683.629 222.575 692.066 223.033 696.997 228.515 C 701.929 233.997 701.494 242.435 696.026 247.382 L 680.511 266.024 C 679.615 267.101 678.295 267.734 676.895 267.759 C 675.494 267.784 674.152 267.198 673.219 266.154 L 657.002 248.019 C 656.067 246.976 655.634 245.576 655.816 244.187 Z " fill="rgb(39,141,73)"/><circle vector-effect="non-scaling-stroke" cx="717.44336" cy="184.2819" r="24.56102999999996" fill="rgb(158,97,106)"/><path d=" M 742.57 180.79 C 734.814 180.167 728.374 172.419 729.18 164.679 C 729.369 171.283 724.577 176.979 718.039 177.925 C 714.481 178.317 710.581 177.24 707.484 179.035 C 704.054 181.023 702.956 185.851 699.383 187.568 C 695.93 189.227 691.545 186.965 689.839 183.535 C 688.134 180.105 688.552 175.985 689.683 172.325 C 692.962 161.708 701.568 153.589 712.357 150.932 C 723.146 148.275 734.538 151.47 742.372 159.35 C 745.634 162.63 748.223 166.811 748.643 171.418 C 749.063 176.025 746.926 181.023 742.789 183.093 L 742.57 180.79 Z " fill="rgb(47,46,65)"/><path d=" M 382 655.901 L 1 655.901 C 0.448 655.901 0 655.453 0 654.901 C 0 654.349 0.448 653.901 1 653.901 L 382 653.901 C 382.552 653.901 383 654.349 383 654.901 C 383 655.453 382.552 655.901 382 655.901 Z " fill="rgb(202,202,202)"/></g></svg>